<svg xmlns="http://www.w3.org/2000/svg" width="1638.667" height="270.667" version="1.0" viewBox="0 0 1229 203"><path d="m38.3 39.8-13.1.3-3.5 8.7-3.5 8.7 18.5.3c17.1.2 18.4.4 17.8 2-4.5 11.4-22.6 62.4-22.3 62.7.2.3 5.6.2 12-.2l11.6-.6 9.3-24.6c5.1-13.5 10.5-27.8 12-31.6l2.7-7 18.5-.3c16.4-.2 18.6-.4 19.2-2 .4-.9 2-5.2 3.6-9.5L124 39l-36.3.2c-19.9.2-42.1.4-49.4.6zM142.6 40l-11.8.5-2.4 6c-4.2 10.7-27.6 72.9-28.1 74.8-.5 1.6.4 1.7 11.7 1.5l12.2-.3L139.6 82c8.5-22.2 15.3-40.9 15.2-41.5-.2-.6-4.5-.8-12.2-.5zM171.1 41.2c-.4 1.3-6.6 17.8-13.6 36.8-7 19-13.6 36.7-14.6 39.3l-1.9 4.8 12.7-.3 12.6-.3 6.8-19.5c3.8-10.7 8.3-23.8 10.1-29 2-6 4.2-10.5 5.9-12.3l2.7-2.7h17.9c14.5 0 18.3.3 20.1 1.6 1.2.8 2.2 2.1 2.2 2.9 0 1.3-4.8 15.1-15.6 44.9-3 8.2-5.4 15.1-5.4 15.3 0 .1 5.2.3 11.5.3 10.2 0 11.5-.2 12.4-1.9.6-1 5.5-13.6 11-27.9C257.1 64 258.2 61.5 261 60c1.2-.7 9.1-.9 21.1-.8 16.4.3 19.3.5 20.2 1.9.8 1.3-1.5 8.4-9.6 30.3-5.9 15.8-10.7 29.2-10.7 29.7 0 .6 4.8.8 12.1.7l12.1-.3 4.8-13c22-59.8 21.1-56.9 18.6-62.8-2.9-6.9.2-6.7-83.1-6.7H172l-.9 2.2zM500.9 39.7l-13.6.4-3.5 8.9-3.6 9h18.4c10.1 0 18.4.3 18.4.6 0 .4-1.1 3.6-2.4 7.3-1.4 3.6-6.5 17.8-11.5 31.5-5.1 13.7-9 25-8.8 25.2.2.2 5.7.1 12.1-.4l11.8-.7 9.4-25c5.2-13.8 10.6-28 12-31.7l2.6-6.8 18.6-.2 18.6-.3 3.3-8.5c1.7-4.7 3.2-8.8 3.2-9.3.1-.6-54.2-.7-85 0zM664.5 40.2c-.3.7-2.7 7.6-5.5 15.3-2.7 7.6-5 14-5 14.2 0 .2-10.3.3-23 .3-12.6 0-23-.1-23-.3 0-.1.9-2.7 2.1-5.7 1.2-3 3.6-9.7 5.5-14.8l3.3-9.2h-24.5L580 77.7c-7.9 20.8-15 39.3-15.7 41L563 122h24.6l6.5-16.3 6.5-16.2 22.7-.3c12.5-.1 22.7.1 22.7.6 0 .4-2.9 7.9-6.4 16.7l-6.4 16 12.1.3c9 .2 12.2-.1 12.8-1 .9-1.4 30.9-81.3 30.9-82.2 0-.3-5.4-.6-12-.6-8.8 0-12.2.3-12.5 1.2zM848.4 40.9c-5.9 2.7-8.5 6.7-14.9 23.1-13 33.2-17.9 45.8-20.1 51.4-1.3 3.3-2.4 6.3-2.4 6.8 0 .4 5.6.8 12.4.8 10.9 0 12.4-.2 12.9-1.8 1.8-6 19.8-53.6 21.2-55.9.9-1.6 3.2-3.9 5.1-5.2l3.4-2.3 32.6.3 32.6.4 3.4-9.5c1.9-5.2 3.4-9.6 3.4-9.8 0-.1-19.2-.2-42.7-.2-39.6 0-43.1.2-46.9 1.9zM938.8 48.2l-3.4 9.3 32.1.5c17.6.3 32.6.9 33.3 1.3 1.4 1 1.6 4.6.2 8.1l-1 2.6h-31.6c-35 0-37 .3-40.1 6.3-3.1 6.1-11.3 30.9-11.3 34.4 0 4.8 2.6 9.9 5.8 11.2 1.9.8 15.1 1 42.6.9l39.9-.3 3.3-9c1.8-5 7.5-20.6 12.8-34.9 5.6-15.2 9.6-27.4 9.6-29.5 0-4.8-2.2-7.8-6.8-9.1-2.2-.6-19-1-42.8-1h-39.2l-3.4 9.2zm53.4 40.4c.7.6-3 12.3-4.2 13.7-.5.6-19.7 1-40 .7-5.1 0-4.1-8.4 1.5-12.8 2.6-2.1 3.8-2.2 22.5-2.2 10.8 0 19.9.3 20.2.6zM1046.3 41c-1.8 1-3.9 3.3-4.8 5-2.8 5.4-22.7 60.4-23.2 64-.7 5.4 1.1 8.8 5.9 11 4 1.8 6.9 2 38.8 2h34.5l3.6-9.3 3.6-9.2-28-.3c-28.8-.2-30.7-.5-30.7-4.3 0-2 12.1-33.5 14.1-36.7 2.8-4.5 4.1-4.7 33.8-5.2l28.5-.5 3.7-9.3 3.8-9.2h-40.2c-38.1 0-40.4.1-43.4 2zM350.1 41.2c-1.3.7-3.2 2.4-4.2 3.8-2.8 3.7-23.9 63.6-23.9 67.6 0 4.4 3.3 7.9 8.8 9.3 2.6.8 17.3 1 42.8.9l38.8-.3 3.2-9.3 3.2-9.2h-33.3c-29 0-33.6-.2-34.9-1.6-1.9-1.9-1.9-1.1 0-6.7l1.6-4.7 36-.2 36-.3 7.4-19.5c4-10.7 7.3-20.5 7.4-21.7 0-1.3-1.3-3.7-2.9-5.5l-2.9-3.3-40.4-.3c-30.8-.1-40.9.1-42.7 1zm58.7 19c.7.9.5 2.8-.7 6.3l-1.7 5-23.7.3-23.7.2 2.1-5.2c1.1-2.9 2.5-5.9 3.1-6.5 1.5-1.8 43.1-1.8 44.6-.1zM704.5 40.9c-1.1.5-3 1.9-4.2 3.2-3 3.3-24.3 63-24.3 68.1 0 5.8 4 9.4 11.1 10.3 3 .3 22 .5 42.3.3l36.8-.3 2.9-8.5c1.6-4.7 2.9-8.8 2.9-9.2 0-.5-14.7-.8-32.6-.8-20.5 0-33.2-.4-34.5-1-2.3-1.3-2.4-3.5-.4-8.4L706 91h71.8l7.1-19.1c7.9-21.3 8.5-25.2 4.5-29l-2.6-2.4-40.1-.2c-22.1-.1-41.1.2-42.2.6zM762.3 63c-.1 2-.7 4.8-1.2 6.3L760 72h-23.5c-12.9 0-23.5-.2-23.5-.4 0-1 4.2-10.1 5.2-11.3.8-1 5.9-1.3 22.7-1.1l21.6.3-.2 3.5zM1138.1 43.7c-3 3-4 5.6-16.2 39.8-4.5 12.6-8.4 25-8.6 27.5-.6 5.6 2 9.4 7.5 11 2.2.6 19.1 1 42.9 1h39.1l2.8-8.3c1.5-4.5 2.9-8.8 3.2-9.6.5-1.2-4.1-1.3-31.4-.8-33.9.7-36.6.4-37.2-3.9-.2-1.1.4-3.6 1.3-5.7l1.5-3.7h71.5l7.3-19.5c3.9-10.7 7.2-20.7 7.2-22.1 0-1.5-1.2-3.8-2.9-5.5l-2.9-2.9h-82.4l-2.7 2.7zm60.9 16.8c.9 1.1.8 2.5-.5 6.5l-1.7 5h-23.4c-12.9 0-23.4-.2-23.4-.4 0-1.6 4.4-10.3 5.7-11.4 2.6-1.9 41.6-1.7 43.3.3z"/></svg>